<svg fill="none" height="100%" width="100%" viewBox="0 0 1920 1920" xmlns:xlink="http://www.w3.org/1999/xlink" xmlns="http://www.w3.org/2000/svg"><defs><filter id="i0"><feComponentTransfer in="SourceGraphic"><feFuncA tableValues="1 0" type="table" /></feComponentTransfer></filter><mask height="20000" width="20000" y="-10000" x="-10000" maskContentUnits="userSpaceOnUse" maskUnits="userSpaceOnUse" style="mask-type: alpha" mask-type="alpha" id="i1"><g filter="url(#i0)"><rect opacity="0" fill="#ffffff" height="1920" width="1920" y="0" x="0" /><g transform="matrix(0.227,0,0,0.227,-168.455,-205.045)"><g transform="matrix(4.4,0,0,4.4,741.2,902.2)"><g transform="matrix(1,0,0,1,-240,-412)" id="i2"><g id="i3"><g transform="translate(305.909,413.182)"><g transform="rotate(0)"><animateTransform repeatCount="indefinite" type="rotate" attributeName="transform" dur="8.5s" begin="0s" calcMode="spline" values="0; 5; 5; 0" keyTimes="0; 0.504202; 0.605042; 1" keySplines="0.466 0 0.435 1; 0.615 0 0.435 1; 0.615 0 0.562 1" fill="freeze" /><g transform="scale(1,1) translate(-305.909,-413.182)"><g id="i4"><g transform="translate(338.182,483.636)"><animateTransform repeatCount="indefinite" type="translate" attributeName="transform" dur="8.5s" begin="0s" calcMode="spline" values="338.182 483.636; 338.34 485.448; 338.34 485.448; 338.182 483.636" keyTimes="0; 0.504202; 0.605042; 1" keySplines="0.503 0 0.45 1; 0 0 1 1; 0.645 0 0.599 1" fill="freeze" /><g transform="rotate(0)"><animateTransform repeatCount="indefinite" type="rotate" attributeName="transform" dur="8.5s" begin="0s" calcMode="spline" values="0; -2; -2; 0" keyTimes="0; 0.504202; 0.605042; 1" keySplines="0.458 0 0.465 1; 0.495 0 0.465 1; 0.495 0 0.464 1" fill="freeze" /><g transform="scale(1,1) translate(-338.182,-483.636)"><g id="i5"><g transform="translate(960,960)"><animateTransform repeatCount="indefinite" type="translate" attributeName="transform" dur="8.5s" begin="0s" calcMode="spline" values="960 960; 958.543 958.256; 958.543 958.256; 960 960" keyTimes="0; 0.504202; 0.605042; 1" keySplines="0.466 0 0.308 1; 0 0 1 1; 0.705 0 0.577 1" fill="freeze" /><g transform="scale(1,1) translate(-960,-960)"><g id="i6"><g transform="translate(339.457,507.698)"><animateTransform repeatCount="indefinite" type="translate" attributeName="transform" dur="8.5s" begin="0s" calcMode="spline" values="339.457 507.698; 339.457 507.698; 332.184 520.425; 339.457 507.698; 339.457 507.698; 332.184 520.425; 339.457 507.698; 339.457 507.698" keyTimes="0; 0.092437; 0.134454; 0.176471; 0.596639; 0.638655; 0.680672; 1" keySplines="0 0 1 1; 0.333 0 0.667 1; 0.333 0 0.667 1; 0 0 1 1; 0.333 0 0.667 1; 0.333 0 0.667 1; 0 0 1 1" fill="freeze" /><g transform="rotate(27) scale(0.227,0.227) translate(0,0)"><g id="i7" transform="matrix(1,0,0,2.319,-56,-366)"><rect height="60" width="264" y="-30" x="-132" stroke-width="6" stroke="#ff8e3a" fill="#ed509e" /></g></g></g></g></g></g></g></g></g></g></g></g></g></g></g></g></g></g></g></mask><filter id="i8"><feComponentTransfer in="SourceGraphic"><feFuncA tableValues="1 0" type="table" /></feComponentTransfer></filter><mask height="20000" width="20000" y="-10000" x="-10000" maskContentUnits="userSpaceOnUse" maskUnits="userSpaceOnUse" style="mask-type: alpha" mask-type="alpha" id="i9"><g filter="url(#i8)"><rect opacity="0" fill="#ffffff" height="1920" width="1920" y="0" x="0" /><g transform="matrix(0.227,0,0,0.227,-168.455,-205.045)"><g transform="matrix(4.4,0,0,4.4,741.2,902.2)"><g transform="matrix(1,0,0,1,-240,-412)" id="i2"><g transform="matrix(1,0,0,1,0,0)" id="i10"><g id="i11"><g transform="translate(254.545,350)"><g transform="rotate(0)"><animateTransform repeatCount="indefinite" type="rotate" attributeName="transform" dur="8.5s" begin="0s" calcMode="spline" values="0; 5; 5; 0" keyTimes="0; 0.504202; 0.605042; 1" keySplines="0.466 0 0.15 1; 0.57 0 0.15 1; 0.57 0 0.622 1" fill="freeze" /><g transform="scale(1,1) translate(-254.545,-350)"><g id="i12"><g transform="translate(960,960)"><animateTransform repeatCount="indefinite" type="translate" attributeName="transform" dur="8.5s" begin="0s" calcMode="spline" values="960 960; 963.702 960.589; 963.702 960.589; 960 960" keyTimes="0; 0.504202; 0.605042; 1" keySplines="0.428 0 0.172 1; 0 0 1 1; 0.713 0 0.397 1" fill="freeze" /><g transform="scale(1,1) translate(-960,-960)"><g id="i13"><g transform="translate(311.275,372.243)"><animateTransform repeatCount="indefinite" type="translate" attributeName="transform" dur="8.5s" begin="0s" calcMode="spline" values="311.275 372.243; 311.275 372.243; 311.275 389.516; 311.275 372.243; 311.275 372.243; 311.275 389.516; 311.275 372.243; 311.275 372.243" keyTimes="0; 0.07563; 0.117647; 0.159664; 0.579832; 0.621848; 0.663865; 1" keySplines="0 0 1 1; 0.333 0 0.667 1; 0.333 0 0.667 1; 0 0 1 1; 0.333 0 0.667 1; 0.333 0 0.667 1; 0 0 1 1" fill="freeze" /><g transform="scale(0.227,0.227) translate(0,0)"><g id="i7" transform="matrix(1,0,0,2.319,-56,-366)"><rect height="60" width="264" y="-30" x="-132" stroke-width="6" stroke="#ffffff" fill="#ed509e" /></g></g></g></g></g></g></g></g></g></g></g></g></g></g></g></g></mask></defs><circle cx="975" cy="940" r="640" fill="#E7D9C6" opacity="0.6"/><g transform="matrix(4.4,0,0,4.4,741.2,902.2)" id="i14"><g transform="matrix(1,0,0,1,-240,-412)" id="i2"><g id="i3"><g transform="translate(305.909,413.182)"><g transform="rotate(0)"><animateTransform repeatCount="indefinite" type="rotate" attributeName="transform" dur="8.5s" begin="0s" calcMode="spline" values="0; 5; 5; 0" keyTimes="0; 0.504202; 0.605042; 1" keySplines="0.466 0 0.435 1; 0.615 0 0.435 1; 0.615 0 0.562 1" fill="freeze" /><g transform="scale(1,1) translate(-305.909,-413.182)"><g id="i15" transform="matrix(1,0,0,1,319.214,428.079)"><path fill="#7A654E" d="M3.432,-21.867C3.432,-21.867,37.875,9.421,37.875,9.421C37.875,9.421,13.373,36.174,13.373,36.174C-5.228,19.059,-5.105,19.163,-18.125,6.452C-37.875,-12.829,-13.303,-36.175,3.432,-21.867Z" /></g><g id="i16" transform="matrix(1,0,0,1,354.513,524.5)"><path fill="#E7C29C" d="M33.493,-26.5C33.493,-26.5,27.993,-4.834,6.326,18.5C-25.508,26.5,-33.492,23.844,-29.091,11C-24.008,-3.834,-18.508,-0.666,2.576,4C2.576,4,8.826,-12.666,8.826,-12.666C8.826,-12.666,24.493,-16.5,33.493,-26.5Z" /></g></g></g></g></g></g></g><g transform="matrix(4.4,0,0,4.4,741.2,902.2)" id="i14"><g transform="matrix(1,0,0,1,-240,-412)" id="i2"><g id="i16" transform="matrix(1,0,0,1,282.381,503.5)"><path fill="#8B7355" d="M-17.229,-127.5C8.967,-127.5,31.099,-111.582,40.116,-89.363C50.973,-62.608,64.624,-37.166,48.958,-21.5C48.958,-21.5,67.708,94.834,67.708,94.834C67.708,94.834,-4.541,127.5,-67.708,94.834C-67.708,58,-62.042,-20.832,-51.708,-39.209C-59.202,-51.828,-64.042,-69.96,-64.042,-82.687C-64.042,-96.5,-39.503,-127.5,-17.229,-127.5Z" /></g></g></g><g transform="matrix(4.4,0,0,4.4,741.2,902.2)" id="i14"><g transform="matrix(1,0,0,1,-240,-412)" id="i2"><g id="i3"><g transform="translate(305.909,413.182)"><g transform="rotate(0)"><animateTransform repeatCount="indefinite" type="rotate" attributeName="transform" dur="8.5s" begin="0s" calcMode="spline" values="0; 5; 5; 0" keyTimes="0; 0.504202; 0.605042; 1" keySplines="0.466 0 0.435 1; 0.615 0 0.435 1; 0.615 0 0.562 1" fill="freeze" /><g transform="scale(1,1) translate(-305.909,-413.182)"><g id="i4"><g transform="translate(338.182,483.636)"><animateTransform repeatCount="indefinite" type="translate" attributeName="transform" dur="8.5s" begin="0s" calcMode="spline" values="338.182 483.636; 338.34 485.448; 338.34 485.448; 338.182 483.636" keyTimes="0; 0.504202; 0.605042; 1" keySplines="0.503 0 0.45 1; 0 0 1 1; 0.645 0 0.599 1" fill="freeze" /><g transform="rotate(0)"><animateTransform repeatCount="indefinite" type="rotate" attributeName="transform" dur="8.5s" begin="0s" calcMode="spline" values="0; -2; -2; 0" keyTimes="0; 0.504202; 0.605042; 1" keySplines="0.458 0 0.465 1; 0.495 0 0.465 1; 0.495 0 0.464 1" fill="freeze" /><g transform="scale(1,1) translate(-338.182,-483.636)"><g id="i17" transform="matrix(1,0,0,1,331.172,479.584)"><path fill="#D9C3A5" d="M32.167,32.25C26.313,62.161,4.751,70.25,-24.75,70.25C-54.251,70.25,-78.167,55.623,-78.167,37.582C-78.167,19.541,-54.251,4.916,-24.75,4.916C10.667,-31.418,0.333,-70.25,44.333,-70.25C71.667,-70.25,78.167,-48.145,78.167,-36.18C78.167,-24.215,75.851,-11.179,64.592,-0.715C62.751,25.834,35.351,31.049,32.167,32.25Z" /></g><g id="i18" transform="matrix(1,0,0,1,360.922,458.668)"><path fill="#E6BD94" d="M-20.416,-11.072C-45.416,9.166,1.084,40,21.917,14.834C32.917,16.166,35.642,2.166,31.084,-0.5C45.417,-25.834,22.73,-40,7.38,-40C-7.972,-40,-17.249,-30.643,-20.416,-11.072Z" /></g><g id="i19" transform="matrix(1,0,0,1,348.456,465.869)"><path fill="#C9A27A" d="M-10.117,-0.001C-10.117,5.588,-5.588,10.117,0,10.117C5.588,10.117,10.117,5.588,10.117,-0.001C10.117,-5.588,5.588,-10.117,0,-10.117C-5.588,-10.117,-10.117,-5.588,-10.117,-0.001Z" /></g><g id="i15" transform="matrix(1,0,0,1,348.205,465.618)"><path fill="#4A3323" d="M-5.721,0C-5.721,3.161,-3.159,5.722,0.001,5.722C3.161,5.722,5.721,3.161,5.721,0C5.721,-3.159,3.161,-5.722,0.001,-5.722C-3.159,-5.722,-5.721,-3.159,-5.721,0Z" /></g><g id="i16" transform="matrix(1,0,0,1,343.27,465.852)"><path fill="#FBF6EE" d="M4.069,0C4.069,2.248,2.247,4.068,0,4.068C-2.247,4.068,-4.069,2.248,-4.069,0C-4.069,-2.246,-2.247,-4.068,0,-4.068C2.247,-4.068,4.069,-2.246,4.069,0Z" /></g></g></g></g></g></g></g></g></g></g></g><g transform="matrix(4.4,0,0,4.4,741.2,902.2)" id="i14"><g transform="matrix(1,0,0,1,-240,-412)" id="i2"><g id="i3"><g transform="translate(305.909,413.182)"><g transform="rotate(0)"><animateTransform repeatCount="indefinite" type="rotate" attributeName="transform" dur="8.5s" begin="0s" calcMode="spline" values="0; 5; 5; 0" keyTimes="0; 0.504202; 0.605042; 1" keySplines="0.466 0 0.435 1; 0.615 0 0.435 1; 0.615 0 0.562 1" fill="freeze" /><g transform="scale(1,1) translate(-305.909,-413.182)"><g transform="matrix(1,0,0,1,0.273,-0.136)" id="i20"><g id="i16" transform="matrix(1,0,0,1,354.513,524.5)"><path fill="#E7C29C" d="M33.493,-26.5C33.493,-26.5,27.993,-4.834,6.326,18.5C-25.508,26.5,-33.492,23.844,-29.091,11C-24.008,-3.834,-18.508,-0.666,2.576,4C2.576,4,8.826,-12.666,8.826,-12.666C8.826,-12.666,24.493,-16.5,33.493,-26.5Z" /></g></g></g></g></g></g></g></g><g transform="matrix(4.4,0,0,4.4,741.2,902.2)" id="i14"><g transform="matrix(1,0,0,1,-240,-412)" id="i2"><g id="i3"><g transform="translate(305.909,413.182)"><g transform="rotate(0)"><animateTransform repeatCount="indefinite" type="rotate" attributeName="transform" dur="8.5s" begin="0s" calcMode="spline" values="0; 5; 5; 0" keyTimes="0; 0.504202; 0.605042; 1" keySplines="0.466 0 0.435 1; 0.615 0 0.435 1; 0.615 0 0.562 1" fill="freeze" /><g transform="scale(1,1) translate(-305.909,-413.182)"><g id="i4"><g transform="translate(338.182,483.636)"><animateTransform repeatCount="indefinite" type="translate" attributeName="transform" dur="8.5s" begin="0s" calcMode="spline" values="338.182 483.636; 338.34 485.448; 338.34 485.448; 338.182 483.636" keyTimes="0; 0.504202; 0.605042; 1" keySplines="0.503 0 0.45 1; 0 0 1 1; 0.645 0 0.599 1" fill="freeze" /><g transform="rotate(0)"><animateTransform repeatCount="indefinite" type="rotate" attributeName="transform" dur="8.5s" begin="0s" calcMode="spline" values="0; -2; -2; 0" keyTimes="0; 0.504202; 0.605042; 1" keySplines="0.458 0 0.465 1; 0.495 0 0.465 1; 0.495 0 0.464 1" fill="freeze" /><g transform="scale(1,1) translate(-338.182,-483.636)"><g id="i21"><g transform="translate(343.182,465.909)"><g transform="rotate(0)"><animateTransform repeatCount="indefinite" type="rotate" attributeName="transform" dur="8.5s" begin="0s" calcMode="spline" values="0; 2; 2; 0" keyTimes="0; 0.504202; 0.605042; 1" keySplines="0.488 0 0.45 1; 0.615 0 0.45 1; 0.615 0 0.554 1" fill="freeze" /><g transform="scale(1,1) translate(-343.182,-465.909)"><g id="i16" transform="matrix(1,0,0,1,342.289,474.893)"><path stroke-linejoin="round" stroke-linecap="round" stroke-width="1.046" stroke="#B98F69" d="M4.982,-0.001C4.982,5.122,2.751,9.274,0,9.274C-2.751,9.274,-4.982,5.122,-4.982,-0.001C-4.982,-5.123,-2.751,-9.274,0,-9.274C2.751,-9.274,4.982,-5.123,4.982,-0.001Z" /></g></g></g></g></g></g></g></g></g></g></g></g></g></g></g><g mask="url(#i1)" transform="matrix(4.4,0,0,4.4,741.2,902.2)" id="i14"><g transform="matrix(1,0,0,1,-240,-412)" id="i2"><g id="i3"><g transform="translate(305.909,413.182)"><g transform="rotate(0)"><animateTransform repeatCount="indefinite" type="rotate" attributeName="transform" dur="8.5s" begin="0s" calcMode="spline" values="0; 5; 5; 0" keyTimes="0; 0.504202; 0.605042; 1" keySplines="0.466 0 0.435 1; 0.615 0 0.435 1; 0.615 0 0.562 1" fill="freeze" /><g transform="scale(1,1) translate(-305.909,-413.182)"><g id="i4"><g transform="translate(338.182,483.636)"><animateTransform repeatCount="indefinite" type="translate" attributeName="transform" dur="8.5s" begin="0s" calcMode="spline" values="338.182 483.636; 338.34 485.448; 338.34 485.448; 338.182 483.636" keyTimes="0; 0.504202; 0.605042; 1" keySplines="0.503 0 0.45 1; 0 0 1 1; 0.645 0 0.599 1" fill="freeze" /><g transform="rotate(0)"><animateTransform repeatCount="indefinite" type="rotate" attributeName="transform" dur="8.5s" begin="0s" calcMode="spline" values="0; -2; -2; 0" keyTimes="0; 0.504202; 0.605042; 1" keySplines="0.458 0 0.465 1; 0.495 0 0.465 1; 0.495 0 0.464 1" fill="freeze" /><g transform="scale(1,1) translate(-338.182,-483.636)"><g id="i5"><g transform="translate(960,960)"><animateTransform repeatCount="indefinite" type="translate" attributeName="transform" dur="8.5s" begin="0s" calcMode="spline" values="960 960; 958.543 958.256; 958.543 958.256; 960 960" keyTimes="0; 0.504202; 0.605042; 1" keySplines="0.466 0 0.308 1; 0 0 1 1; 0.705 0 0.577 1" fill="freeze" /><g transform="scale(1,1) translate(-960,-960)"><g id="i15" transform="matrix(1,0,0,1,351.187,447.666)"><path fill="#4A3323" d="M0.296,3.341C-0.008,4.112,-0.88,4.491,-1.65,4.188C-2.421,3.883,-2.8,3.011,-2.496,2.241C-2.496,2.241,-0.296,-3.34,-0.296,-3.34C0.008,-4.111,0.879,-4.491,1.649,-4.186C2.421,-3.883,2.799,-3.011,2.495,-2.24C2.495,-2.24,0.296,3.341,0.296,3.341Z" /></g><g id="i16" transform="matrix(1,0,0,1,363.442,452.394)"><path fill="#4A3323" d="M0.385,3.176C0.058,4.005,-0.568,4.533,-1.395,4.207C-1.395,4.207,-1.499,4.166,-1.499,4.166C-2.327,3.84,-2.733,2.905,-2.406,2.076C-2.406,2.076,-0.41,-2.988,-0.41,-2.988C-0.084,-3.815,0.973,-4.533,1.801,-4.207C1.801,-4.207,1.905,-4.166,1.905,-4.166C2.732,-3.84,2.707,-2.716,2.381,-1.888C2.381,-1.888,0.385,3.176,0.385,3.176Z" /></g></g></g></g></g></g></g></g></g></g></g></g></g></g><g display="none" transform="matrix(4.4,0,0,4.4,741.2,902.2)" id="i14"><g transform="matrix(1,0,0,1,-240,-412)" id="i2"><g id="i3"><g transform="translate(305.909,413.182)"><g transform="rotate(0)"><animateTransform repeatCount="indefinite" type="rotate" attributeName="transform" dur="8.5s" begin="0s" calcMode="spline" values="0; 5; 5; 0" keyTimes="0; 0.504202; 0.605042; 1" keySplines="0.466 0 0.435 1; 0.615 0 0.435 1; 0.615 0 0.562 1" fill="freeze" /><g transform="scale(1,1) translate(-305.909,-413.182)"><g id="i4"><g transform="translate(338.182,483.636)"><animateTransform repeatCount="indefinite" type="translate" attributeName="transform" dur="8.5s" begin="0s" calcMode="spline" values="338.182 483.636; 338.34 485.448; 338.34 485.448; 338.182 483.636" keyTimes="0; 0.504202; 0.605042; 1" keySplines="0.503 0 0.45 1; 0 0 1 1; 0.645 0 0.599 1" fill="freeze" /><g transform="rotate(0)"><animateTransform repeatCount="indefinite" type="rotate" attributeName="transform" dur="8.5s" begin="0s" calcMode="spline" values="0; -2; -2; 0" keyTimes="0; 0.504202; 0.605042; 1" keySplines="0.458 0 0.465 1; 0.495 0 0.465 1; 0.495 0 0.464 1" fill="freeze" /><g transform="scale(1,1) translate(-338.182,-483.636)"><g id="i5"><g transform="translate(960,960)"><animateTransform repeatCount="indefinite" type="translate" attributeName="transform" dur="8.5s" begin="0s" calcMode="spline" values="960 960; 958.543 958.256; 958.543 958.256; 960 960" keyTimes="0; 0.504202; 0.605042; 1" keySplines="0.466 0 0.308 1; 0 0 1 1; 0.705 0 0.577 1" fill="freeze" /><g transform="scale(1,1) translate(-960,-960)"><g id="i6"><g transform="translate(339.457,507.698)"><animateTransform repeatCount="indefinite" type="translate" attributeName="transform" dur="8.5s" begin="0s" calcMode="spline" values="339.457 507.698; 339.457 507.698; 332.184 520.425; 339.457 507.698; 339.457 507.698; 332.184 520.425; 339.457 507.698; 339.457 507.698" keyTimes="0; 0.092437; 0.134454; 0.176471; 0.596639; 0.638655; 0.680672; 1" keySplines="0 0 1 1; 0.333 0 0.667 1; 0.333 0 0.667 1; 0 0 1 1; 0.333 0 0.667 1; 0.333 0 0.667 1; 0 0 1 1" fill="freeze" /><g transform="rotate(27) scale(0.227,0.227) translate(0,0)"><g id="i7" transform="matrix(1,0,0,2.319,-56,-366)"><rect height="60" width="264" y="-30" x="-132" stroke-width="6" stroke="#ff8e3a" fill="#ed509e" /></g></g></g></g></g></g></g></g></g></g></g></g></g></g></g></g></g><g transform="matrix(4.4,0,0,4.4,741.2,902.2)" id="i14"><g transform="matrix(1,0,0,1,-240,-412)" id="i2"><g transform="matrix(1,0,0,1,0,0)" id="i10"><g id="i11"><g transform="translate(254.545,350)"><g transform="rotate(0)"><animateTransform repeatCount="indefinite" type="rotate" attributeName="transform" dur="8.5s" begin="0s" calcMode="spline" values="0; 5; 5; 0" keyTimes="0; 0.504202; 0.605042; 1" keySplines="0.466 0 0.15 1; 0.57 0 0.15 1; 0.57 0 0.622 1" fill="freeze" /><g transform="scale(1,1) translate(-254.545,-350)"><g id="i22"><g transform="translate(960,960)"><animateTransform repeatCount="indefinite" type="translate" attributeName="transform" dur="8.5s" begin="0s" calcMode="spline" values="960 960; 963.306 956.061; 963.306 956.061; 960 960" keyTimes="0; 0.504202; 0.605042; 1" keySplines="0.443 0 0.195 1; 0 0 1 1; 0.69 0 0.592 1" fill="freeze" /><g transform="scale(1,1) translate(-960,-960)"><g id="i16" transform="matrix(1,0,0,1,274.006,311.084)"><path fill="#4A3323" d="M48.667,-57.75C62.944,-43.475,78.667,-33.084,66.667,-1.75C60.833,15.166,52.333,19.916,52.333,19.916C61.083,22.666,65.275,41.164,44.999,44.584C44.833,71.416,-12.333,54.25,-12.333,54.25C-12.333,54.25,-24.417,62.166,-33.667,52.25C-48.917,55.666,-49.667,44.25,-49.667,44.25C-62.417,44.916,-78.667,35.25,-66.667,27.916C-54.667,20.584,-54.667,17.25,-54.667,-9.75C-54.667,-36.75,-52,-71.416,4.667,-71.416C24.33,-71.416,38.833,-67.584,48.667,-57.75Z" /></g></g></g></g></g></g></g></g></g></g></g><g transform="matrix(4.4,0,0,4.4,741.2,902.2)" id="i14"><g transform="matrix(1,0,0,1,-240,-412)" id="i2"><g id="i23"><g transform="translate(221.818,435.455)"><g transform="rotate(0)"><animateTransform repeatCount="indefinite" type="rotate" attributeName="transform" dur="8.5s" begin="0s" calcMode="spline" values="0; 3; 3; 0" keyTimes="0; 0.504202; 0.605042; 1" keySplines="0.458 0 0.398 1; 0.593 0 0.398 1; 0.593 0 0.614 1" fill="freeze" /><g transform="scale(1,1) translate(-221.818,-435.455)"><g id="i15" transform="matrix(1,0,0,1,224.904,426.418)"><path fill="#7A654E" d="M-12.231,45.916C-29.434,-5.119,6.498,-45.916,29.435,28.25C29.435,28.25,-12.231,45.916,-12.231,45.916Z" /></g><g id="i16" transform="matrix(1,0,0,1,274.401,513.125)"><path fill="#E7C29C" d="M-20.063,-58.527C-14.73,-41.527,-4.729,-12.957,6.978,29.875C12.604,17.877,20.529,-14.707,20.529,-14.707C25.104,-39.291,25.334,-54.164,39.805,-50.459C61.937,-44.791,64.438,-26.959,52.438,-24.459C49.266,-16.457,39.273,-9.457,39.273,-9.457C39.273,-9.457,34.355,72.875,14.021,72.875C-10.927,72.875,-50.563,-5.123,-61.729,-40.791C-64.438,-72.875,-25.5,-70.75,-20.063,-58.527Z" /></g></g></g></g></g></g></g><g transform="matrix(4.4,0,0,4.4,741.2,902.2)" id="i14"><g transform="matrix(1,0,0,1,-240,-412)" id="i2"><g transform="matrix(1,0,0,1,0,0)" id="i10"><g id="i16" transform="matrix(1,0,0,1,275.568,385.532)"><path fill="#E7C29C" d="M-15.471,-35.282C-15.471,-35.282,12.649,-35.032,12.649,-35.032C12.649,-35.032,11.714,-3.532,17.964,9.968C24.214,23.468,19.749,35.282,19.749,35.282C19.749,35.282,-7.214,27.499,-24.214,-2.751C-24.214,-2.751,-24.214,-23.64,-24.214,-23.64C-24.214,-23.64,-15.471,-35.282,-15.471,-35.282Z" /></g></g></g></g><g transform="matrix(4.4,0,0,4.4,741.2,902.2)" id="i14"><g transform="matrix(1,0,0,1,-240,-412)" id="i2"><g transform="matrix(1,0,0,1,0,0)" id="i10"><g id="i11"><g transform="translate(254.545,350)"><g transform="rotate(0)"><animateTransform repeatCount="indefinite" type="rotate" attributeName="transform" dur="8.5s" begin="0s" calcMode="spline" values="0; 5; 5; 0" keyTimes="0; 0.504202; 0.605042; 1" keySplines="0.466 0 0.15 1; 0.57 0 0.15 1; 0.57 0 0.622 1" fill="freeze" /><g transform="scale(1,1) translate(-254.545,-350)"><g id="i18" transform="matrix(1,0,0,1,294.316,311)"><path fill="#E7C29C" d="M-4.227,-52.25C-4.227,-52.25,7.523,-42,19.773,-36.25C33.977,20.928,22.273,52.25,2.273,52.25C-17.727,52.25,-33.977,39.25,-33.977,39.25C-33.977,39.25,-6.227,-1.75,-4.227,-52.25Z" /></g><g id="i19" transform="matrix(1,0,0,1,297.5,340)"><path stroke-linejoin="round" stroke-linecap="round" stroke-width="2.2" stroke="#4A3323" fill="none" d="M-5.5,-0.6C-3.2,2.9,3.2,2.9,5.5,-0.6" /></g></g></g></g></g></g></g></g><g mask="url(#i9)" transform="matrix(4.4,0,0,4.4,741.2,902.2)" id="i14"><g transform="matrix(1,0,0,1,-240,-412)" id="i2"><g transform="matrix(1,0,0,1,0,0)" id="i10"><g id="i11"><g transform="translate(254.545,350)"><g transform="rotate(0)"><animateTransform repeatCount="indefinite" type="rotate" attributeName="transform" dur="8.5s" begin="0s" calcMode="spline" values="0; 5; 5; 0" keyTimes="0; 0.504202; 0.605042; 1" keySplines="0.466 0 0.15 1; 0.57 0 0.15 1; 0.57 0 0.622 1" fill="freeze" /><g transform="scale(1,1) translate(-254.545,-350)"><g id="i12"><g transform="translate(960,960)"><animateTransform repeatCount="indefinite" type="translate" attributeName="transform" dur="8.5s" begin="0s" calcMode="spline" values="960 960; 963.702 960.589; 963.702 960.589; 960 960" keyTimes="0; 0.504202; 0.605042; 1" keySplines="0.428 0 0.172 1; 0 0 1 1; 0.713 0 0.397 1" fill="freeze" /><g transform="scale(1,1) translate(-960,-960)"><g id="i15" transform="matrix(1,0,0,1,287.854,313.512)"><path fill="#4A3323" d="M2.5,3.747C2.5,5.239,1.489,6.447,0,6.447C-1.491,6.447,-2.5,5.239,-2.5,3.747C-2.5,3.747,-2.5,-3.746,-2.5,-3.746C-2.5,-5.24,-1.491,-6.447,0,-6.447C1.489,-6.447,2.5,-5.24,2.5,-3.746C2.5,-3.746,2.5,3.747,2.5,3.747Z" /></g><g id="i16" transform="matrix(1,0,0,1,305.854,313.512)"><path fill="#4A3323" d="M2.5,3.747C2.5,5.239,1.489,6.447,0,6.447C-1.491,6.447,-2.5,5.239,-2.5,3.747C-2.5,3.747,-2.5,-3.746,-2.5,-3.746C-2.5,-5.24,-1.491,-6.447,0,-6.447C1.489,-6.447,2.5,-5.24,2.5,-3.746C2.5,-3.746,2.5,3.747,2.5,3.747Z" /></g></g></g></g></g></g></g></g></g></g></g><g display="none" transform="matrix(4.4,0,0,4.4,741.2,902.2)" id="i14"><g transform="matrix(1,0,0,1,-240,-412)" id="i2"><g transform="matrix(1,0,0,1,0,0)" id="i10"><g id="i11"><g transform="translate(254.545,350)"><g transform="rotate(0)"><animateTransform repeatCount="indefinite" type="rotate" attributeName="transform" dur="8.5s" begin="0s" calcMode="spline" values="0; 5; 5; 0" keyTimes="0; 0.504202; 0.605042; 1" keySplines="0.466 0 0.15 1; 0.57 0 0.15 1; 0.57 0 0.622 1" fill="freeze" /><g transform="scale(1,1) translate(-254.545,-350)"><g id="i12"><g transform="translate(960,960)"><animateTransform repeatCount="indefinite" type="translate" attributeName="transform" dur="8.5s" begin="0s" calcMode="spline" values="960 960; 963.702 960.589; 963.702 960.589; 960 960" keyTimes="0; 0.504202; 0.605042; 1" keySplines="0.428 0 0.172 1; 0 0 1 1; 0.713 0 0.397 1" fill="freeze" /><g transform="scale(1,1) translate(-960,-960)"><g id="i13"><g transform="translate(311.275,372.243)"><animateTransform repeatCount="indefinite" type="translate" attributeName="transform" dur="8.5s" begin="0s" calcMode="spline" values="311.275 372.243; 311.275 372.243; 311.275 389.516; 311.275 372.243; 311.275 372.243; 311.275 389.516; 311.275 372.243; 311.275 372.243" keyTimes="0; 0.07563; 0.117647; 0.159664; 0.579832; 0.621848; 0.663865; 1" keySplines="0 0 1 1; 0.333 0 0.667 1; 0.333 0 0.667 1; 0 0 1 1; 0.333 0 0.667 1; 0.333 0 0.667 1; 0 0 1 1" fill="freeze" /><g transform="scale(0.227,0.227) translate(0,0)"><g id="i7" transform="matrix(1,0,0,2.319,-56,-366)"><rect height="60" width="264" y="-30" x="-132" stroke-width="6" stroke="#ffffff" fill="#ed509e" /></g></g></g></g></g></g></g></g></g></g></g></g></g></g><g transform="matrix(4.4,0,0,4.4,741.2,902.2)" id="i14"><g transform="matrix(1,0,0,1,-240,-412)" id="i2"><g transform="matrix(1,0,0,1,0,0)" id="i10"><g id="i11"><g transform="translate(254.545,350)"><g transform="rotate(0)"><animateTransform repeatCount="indefinite" type="rotate" attributeName="transform" dur="8.5s" begin="0s" calcMode="spline" values="0; 5; 5; 0" keyTimes="0; 0.504202; 0.605042; 1" keySplines="0.466 0 0.15 1; 0.57 0 0.15 1; 0.57 0 0.622 1" fill="freeze" /><g transform="scale(1,1) translate(-254.545,-350)"><g id="i24"><g transform="translate(960,960)"><animateTransform repeatCount="indefinite" type="translate" attributeName="transform" dur="8.5s" begin="0s" calcMode="spline" values="960 960; 961.97 961.653; 961.97 961.653; 960 960" keyTimes="0; 0.504202; 0.605042; 1" keySplines="0.398 0 0.533 1; 0 0 1 1; 0.547 0 0.584 1" fill="freeze" /><g transform="scale(1,1) translate(-960,-960)"><g id="i15" transform="matrix(1,0,0,1,287.576,294.396)"><path stroke-linejoin="round" stroke-linecap="round" stroke-width="2" stroke="#4A3323" d="M5.417,1.271C2.946,-1.201,-2.876,-1.272,-5.417,1.271" /></g><g id="i16" transform="matrix(1,0,0,1,305.576,294.396)"><path stroke-linejoin="round" stroke-linecap="round" stroke-width="2" stroke="#4A3323" d="M5.417,1.271C2.946,-1.201,-2.876,-1.272,-5.417,1.271" /></g></g></g></g></g></g></g></g></g></g></g><g transform="matrix(4.4,0,0,4.4,741.2,902.2)" opacity="0" id="i14" /></svg>